<svg id="Layer_1" data-name="Layer 1" xmlns="http://www.w3.org/2000/svg" viewBox="0 0 1080 1080"><defs><style>.cls-1{fill:#231f20;}.cls-2{fill:#fff;stroke:#231f20;stroke-miterlimit:10;stroke-width:2.04px;}</style></defs><g id="Layer_2" data-name="Layer 2"><g id="Layer_1-2" data-name="Layer 1-2"><path class="cls-1" d="M300.08,1018.84l21.17-65.56Q378.61,969.81,424,969.81q43.35,0,59.63-24.58t16.27-98.89v-9.81H319.2V766.88H499.93V298.44H580.5v468.4H715.71v69.65H580.5v18.07q0,102.75-35.11,144.08T424,1040Q368.26,1040,300.08,1018.84Z"/><path class="cls-2" d="M580.52,94.15Q611.43,83.29,656,83.29q55.77,0,123.95,20.85l-21.17,64.6Q701.39,152.35,656,152.35q-43.35,0-59.63,24.15t-16.27,97.39V765.81H499.52V352.31l.43,149V40h80.57V94.15M499.79,342.28V255.82"/></g></g></svg>